<svg xmlns="http://www.w3.org/2000/svg" viewBox="0 0 800 500" fill="#841617">
  <!-- Analytics grid + faint schooner -->
  <g opacity="0.2">
    <line x1="0" y1="100" x2="800" y2="100" stroke="#841617" stroke-width="1"/>
    <line x1="0" y1="200" x2="800" y2="200" stroke="#841617" stroke-width="1"/>
    <line x1="0" y1="300" x2="800" y2="300" stroke="#841617" stroke-width="1"/>
    <line x1="0" y1="400" x2="800" y2="400" stroke="#841617" stroke-width="1"/>
    <line x1="160" y1="0" x2="160" y2="500" stroke="#841617" stroke-width="1"/>
    <line x1="320" y1="0" x2="320" y2="500" stroke="#841617" stroke-width="1"/>
    <line x1="480" y1="0" x2="480" y2="500" stroke="#841617" stroke-width="1"/>
    <line x1="640" y1="0" x2="640" y2="500" stroke="#841617" stroke-width="1"/>
  </g>
  <polyline points="100,380 200,300 300,340 400,220 500,260 600,180 700,200" fill="none" stroke="#841617" stroke-width="5" opacity="0.35"/>
  <!-- Mini schooner -->
  <rect x="480" y="300" width="120" height="50" rx="4" opacity="0.5"/>
  <circle cx="510" cy="360" r="16" fill="none" stroke="#841617" stroke-width="5" opacity="0.5"/>
  <circle cx="570" cy="360" r="16" fill="none" stroke="#841617" stroke-width="5" opacity="0.5"/>
  <path d="M420 330 C440 300 470 295 490 315" fill="none" stroke="#841617" stroke-width="4" opacity="0.4"/>
</svg>
