<svg xmlns="http://www.w3.org/2000/svg" viewBox="0 0 700 400" fill="#841617">
  <!-- Sooner Schooner wagon -->
  <ellipse cx="350" cy="310" rx="280" ry="30" opacity="0.3"/>
  <rect x="200" y="200" width="220" height="80" rx="6" opacity="0.85"/>
  <path d="M200 200 L170 160 L230 160 Z" opacity="0.7"/>
  <circle cx="240" cy="290" r="28" fill="none" stroke="#841617" stroke-width="8" opacity="0.8"/>
  <circle cx="380" cy="290" r="28" fill="none" stroke="#841617" stroke-width="8" opacity="0.8"/>
  <!-- Ponies -->
  <path d="M80 260 C100 220 130 210 160 230 L175 280 L140 295 Z" opacity="0.75"/>
  <path d="M160 230 C190 200 230 195 260 220 L270 275 L220 290 Z" opacity="0.75"/>
  <path d="M500 260 C520 220 550 210 580 230 L595 280 L560 295 Z" opacity="0.75" transform="scale(-1,1) translate(-1080,0)"/>
  <!-- Flag -->
  <line x1="420" y1="200" x2="420" y2="120" stroke="#841617" stroke-width="4" opacity="0.6"/>
  <path d="M420 120 L480 135 L420 150 Z" opacity="0.5"/>
</svg>
